<svg width="99" height="38" viewBox="0 0 99 38" fill="none" xmlns="http://www.w3.org/2000/svg">
<path d="M54.5469 7.25V30H49.8594L40.7188 14.75V30H36.0312V7.25H40.7188L49.875 22.5156V7.25H54.5469ZM63.0938 13.0938V30H58.5781V13.0938H63.0938ZM58.2969 8.6875C58.2969 8.03125 58.526 7.48958 58.9844 7.0625C59.4427 6.63542 60.0573 6.42188 60.8281 6.42188C61.5885 6.42188 62.1979 6.63542 62.6562 7.0625C63.125 7.48958 63.3594 8.03125 63.3594 8.6875C63.3594 9.34375 63.125 9.88542 62.6562 10.3125C62.1979 10.7396 61.5885 10.9531 60.8281 10.9531C60.0573 10.9531 59.4427 10.7396 58.9844 10.3125C58.526 9.88542 58.2969 9.34375 58.2969 8.6875ZM75.9531 25.3281C75.9531 25.0052 75.8594 24.7135 75.6719 24.4531C75.4844 24.1927 75.1354 23.9531 74.625 23.7344C74.125 23.5052 73.401 23.2969 72.4531 23.1094C71.599 22.9219 70.8021 22.6875 70.0625 22.4062C69.3333 22.1146 68.6979 21.7656 68.1562 21.3594C67.625 20.9531 67.2083 20.474 66.9062 19.9219C66.6042 19.3594 66.4531 18.7188 66.4531 18C66.4531 17.2917 66.6042 16.625 66.9062 16C67.2188 15.375 67.6615 14.8229 68.2344 14.3438C68.8177 13.8542 69.526 13.474 70.3594 13.2031C71.2031 12.9219 72.151 12.7812 73.2031 12.7812C74.6719 12.7812 75.9323 13.0156 76.9844 13.4844C78.0469 13.9531 78.8594 14.599 79.4219 15.4219C79.9948 16.2344 80.2812 17.1615 80.2812 18.2031H75.7812C75.7812 17.7656 75.6875 17.375 75.5 17.0312C75.3229 16.6771 75.0417 16.401 74.6562 16.2031C74.2812 15.9948 73.7917 15.8906 73.1875 15.8906C72.6875 15.8906 72.2552 15.9792 71.8906 16.1562C71.526 16.3229 71.2448 16.5521 71.0469 16.8438C70.8594 17.125 70.7656 17.4375 70.7656 17.7812C70.7656 18.0417 70.8177 18.276 70.9219 18.4844C71.0365 18.6823 71.2188 18.8646 71.4688 19.0312C71.7188 19.1979 72.0417 19.3542 72.4375 19.5C72.8438 19.6354 73.3438 19.7604 73.9375 19.875C75.1562 20.125 76.2448 20.4531 77.2031 20.8594C78.1615 21.2552 78.9219 21.7969 79.4844 22.4844C80.0469 23.1615 80.3281 24.0521 80.3281 25.1562C80.3281 25.9062 80.1615 26.5938 79.8281 27.2188C79.4948 27.8438 79.0156 28.3906 78.3906 28.8594C77.7656 29.3177 77.0156 29.6771 76.1406 29.9375C75.276 30.1875 74.3021 30.3125 73.2188 30.3125C71.6458 30.3125 70.3125 30.0312 69.2188 29.4688C68.1354 28.9062 67.3125 28.1927 66.75 27.3281C66.1979 26.4531 65.9219 25.5573 65.9219 24.6406H70.1875C70.2083 25.2552 70.3646 25.75 70.6562 26.125C70.9583 26.5 71.3385 26.7708 71.7969 26.9375C72.2656 27.1042 72.7708 27.1875 73.3125 27.1875C73.8958 27.1875 74.3802 27.1094 74.7656 26.9531C75.151 26.7865 75.4427 26.5677 75.6406 26.2969C75.849 26.0156 75.9531 25.6927 75.9531 25.3281ZM92.375 26.1875V18.6562C92.375 18.1146 92.2865 17.651 92.1094 17.2656C91.9323 16.8698 91.6562 16.5625 91.2812 16.3438C90.9167 16.125 90.4427 16.0156 89.8594 16.0156C89.3594 16.0156 88.9271 16.1042 88.5625 16.2812C88.1979 16.4479 87.9167 16.6927 87.7188 17.0156C87.5208 17.3281 87.4219 17.6979 87.4219 18.125H82.9219C82.9219 17.4062 83.0885 16.724 83.4219 16.0781C83.7552 15.4323 84.2396 14.8646 84.875 14.375C85.5104 13.875 86.2656 13.4844 87.1406 13.2031C88.026 12.9219 89.0156 12.7812 90.1094 12.7812C91.4219 12.7812 92.5885 13 93.6094 13.4375C94.6302 13.875 95.4323 14.5312 96.0156 15.4062C96.6094 16.2812 96.9062 17.375 96.9062 18.6875V25.9219C96.9062 26.849 96.9635 27.6094 97.0781 28.2031C97.1927 28.7865 97.3594 29.2969 97.5781 29.7344V30H93.0312C92.8125 29.5417 92.6458 28.9688 92.5312 28.2812C92.4271 27.5833 92.375 26.8854 92.375 26.1875ZM92.9688 19.7031L93 22.25H90.4844C89.8906 22.25 89.375 22.3177 88.9375 22.4531C88.5 22.5885 88.1406 22.7812 87.8594 23.0312C87.5781 23.2708 87.3698 23.5521 87.2344 23.875C87.1094 24.1979 87.0469 24.5521 87.0469 24.9375C87.0469 25.3229 87.1354 25.6719 87.3125 25.9844C87.4896 26.2865 87.7448 26.526 88.0781 26.7031C88.4115 26.8698 88.8021 26.9531 89.25 26.9531C89.9271 26.9531 90.5156 26.8177 91.0156 26.5469C91.5156 26.276 91.901 25.9427 92.1719 25.5469C92.4531 25.151 92.599 24.776 92.6094 24.4219L93.7969 26.3281C93.6302 26.7552 93.401 27.1979 93.1094 27.6562C92.8281 28.1146 92.4688 28.5469 92.0312 28.9531C91.5938 29.349 91.0677 29.6771 90.4531 29.9375C89.8385 30.1875 89.1094 30.3125 88.2656 30.3125C87.1927 30.3125 86.2188 30.099 85.3438 29.6719C84.4792 29.2344 83.7917 28.6354 83.2812 27.875C82.7812 27.1042 82.5312 26.2292 82.5312 25.25C82.5312 24.3646 82.6979 23.5781 83.0312 22.8906C83.3646 22.2031 83.8542 21.625 84.5 21.1562C85.1562 20.6771 85.974 20.3177 86.9531 20.0781C87.9323 19.8281 89.0677 19.7031 90.3594 19.7031H92.9688Z" fill="white"/>
<path d="M26 33L0 7H8.66667L19.3968 17.7302V7H26V33Z" fill="#FF3C78"/>
<path d="M1 19.1836L5.71014 23.9565L10.4203 28.7295H1V19.1836Z" fill="#FF3C78"/>
</svg>
